<mxfile host="Electron" modified="2024-02-04T12:29:43.838Z" agent="Mozilla/5.0 (Windows NT 10.0; Win64; x64) AppleWebKit/537.36 (KHTML, like Gecko) draw.io/23.0.2 Chrome/120.0.6099.109 Electron/28.1.0 Safari/537.36" etag="l6T8DMD6rJhPjSkFMlqA" version="23.0.2" type="device">
  <diagram name="1 oldal" id="M-5pTwu8K4ap1srHxT2F">
    <mxGraphModel dx="2120" dy="1639" grid="0" gridSize="10" guides="1" tooltips="1" connect="1" arrows="1" fold="1" page="0" pageScale="1" pageWidth="827" pageHeight="1169" math="0" shadow="0">
      <root>
        <mxCell id="0" />
        <mxCell id="1" parent="0" />
        <mxCell id="u0cgIK4iX0vnpHJxGUB2-1" value="Department" style="rounded=0;whiteSpace=wrap;html=1;fillColor=#B3B3B3;" parent="1" vertex="1">
          <mxGeometry x="703" y="325" width="120" height="60" as="geometry" />
        </mxCell>
        <mxCell id="u0cgIK4iX0vnpHJxGUB2-12" value="Physician" style="rounded=0;whiteSpace=wrap;html=1;fillColor=#B3B3B3;" parent="1" vertex="1">
          <mxGeometry x="743" y="-79" width="120" height="60" as="geometry" />
        </mxCell>
        <mxCell id="u0cgIK4iX0vnpHJxGUB2-23" value="Patient" style="rounded=0;whiteSpace=wrap;html=1;fillColor=#B3B3B3;" parent="1" vertex="1">
          <mxGeometry x="522" y="163" width="120" height="60" as="geometry" />
        </mxCell>
        <mxCell id="u0cgIK4iX0vnpHJxGUB2-24" value="Nurse" style="rounded=0;whiteSpace=wrap;html=1;fillColor=#B3B3B3;" parent="1" vertex="1">
          <mxGeometry x="139" y="279" width="120" height="60" as="geometry" />
        </mxCell>
        <mxCell id="u0cgIK4iX0vnpHJxGUB2-43" value="Appointment" style="rounded=0;whiteSpace=wrap;html=1;fillColor=#B3B3B3;" parent="1" vertex="1">
          <mxGeometry x="387" y="-134" width="120" height="60" as="geometry" />
        </mxCell>
        <mxCell id="u0cgIK4iX0vnpHJxGUB2-52" value="Procedure" style="rounded=0;whiteSpace=wrap;html=1;fillColor=#B3B3B3;" parent="1" vertex="1">
          <mxGeometry x="785" y="-275" width="120" height="60" as="geometry" />
        </mxCell>
        <mxCell id="u0cgIK4iX0vnpHJxGUB2-53" value="Medication" style="rounded=0;whiteSpace=wrap;html=1;fillColor=#B3B3B3;" parent="1" vertex="1">
          <mxGeometry x="463" y="-306" width="120" height="60" as="geometry" />
        </mxCell>
        <mxCell id="u0cgIK4iX0vnpHJxGUB2-54" value="Test" style="rounded=0;whiteSpace=wrap;html=1;fillColor=#B3B3B3;" parent="1" vertex="1">
          <mxGeometry x="418" y="442" width="120" height="60" as="geometry" />
        </mxCell>
        <mxCell id="u0cgIK4iX0vnpHJxGUB2-63" value="Room" style="rounded=0;whiteSpace=wrap;html=1;fillColor=#B3B3B3;" parent="1" vertex="1">
          <mxGeometry x="127" y="-154" width="120" height="60" as="geometry" />
        </mxCell>
        <mxCell id="u0cgIK4iX0vnpHJxGUB2-97" value="DepartmentID" style="ellipse;whiteSpace=wrap;html=1;align=center;fontStyle=4;" parent="1" vertex="1">
          <mxGeometry x="850" y="352" width="100" height="40" as="geometry" />
        </mxCell>
        <mxCell id="u0cgIK4iX0vnpHJxGUB2-98" value="PhoneNumber" style="ellipse;whiteSpace=wrap;html=1;align=center;" parent="1" vertex="1">
          <mxGeometry x="517" y="263" width="100" height="40" as="geometry" />
        </mxCell>
        <mxCell id="u0cgIK4iX0vnpHJxGUB2-99" value="Specialization" style="ellipse;whiteSpace=wrap;html=1;align=center;" parent="1" vertex="1">
          <mxGeometry x="211" y="370" width="100" height="40" as="geometry" />
        </mxCell>
        <mxCell id="u0cgIK4iX0vnpHJxGUB2-100" value="Name" style="ellipse;whiteSpace=wrap;html=1;align=center;" parent="1" vertex="1">
          <mxGeometry x="663" y="149" width="100" height="40" as="geometry" />
        </mxCell>
        <mxCell id="u0cgIK4iX0vnpHJxGUB2-102" value="StartDate" style="ellipse;whiteSpace=wrap;html=1;align=center;" parent="1" vertex="1">
          <mxGeometry x="322" y="-212" width="100" height="40" as="geometry" />
        </mxCell>
        <mxCell id="u0cgIK4iX0vnpHJxGUB2-103" value="EndDate" style="ellipse;whiteSpace=wrap;html=1;align=center;" parent="1" vertex="1">
          <mxGeometry x="270" y="-141" width="100" height="40" as="geometry" />
        </mxCell>
        <mxCell id="u0cgIK4iX0vnpHJxGUB2-105" value="Type" style="ellipse;whiteSpace=wrap;html=1;align=center;" parent="1" vertex="1">
          <mxGeometry x="2" y="-184" width="100" height="40" as="geometry" />
        </mxCell>
        <mxCell id="u0cgIK4iX0vnpHJxGUB2-106" value="Availability" style="ellipse;whiteSpace=wrap;html=1;align=center;" parent="1" vertex="1">
          <mxGeometry x="5" y="-114" width="100" height="40" as="geometry" />
        </mxCell>
        <mxCell id="u0cgIK4iX0vnpHJxGUB2-107" value="HeadPhysican" style="ellipse;whiteSpace=wrap;html=1;align=center;" parent="1" vertex="1">
          <mxGeometry x="753" y="422" width="100" height="40" as="geometry" />
        </mxCell>
        <mxCell id="u0cgIK4iX0vnpHJxGUB2-111" value="&lt;span style=&quot;border-bottom: 1px dotted&quot;&gt;NurseID&lt;/span&gt;" style="ellipse;whiteSpace=wrap;html=1;align=center;" parent="1" vertex="1">
          <mxGeometry x="11" y="312" width="100" height="40" as="geometry" />
        </mxCell>
        <mxCell id="u0cgIK4iX0vnpHJxGUB2-112" value="LastName" style="ellipse;whiteSpace=wrap;html=1;align=center;" parent="1" vertex="1">
          <mxGeometry x="800" y="175" width="100" height="40" as="geometry" />
        </mxCell>
        <mxCell id="u0cgIK4iX0vnpHJxGUB2-113" value="FirstName" style="ellipse;whiteSpace=wrap;html=1;align=center;" parent="1" vertex="1">
          <mxGeometry x="785" y="109" width="100" height="40" as="geometry" />
        </mxCell>
        <mxCell id="u0cgIK4iX0vnpHJxGUB2-118" value="PhoneNumber" style="ellipse;whiteSpace=wrap;html=1;align=center;" parent="1" vertex="1">
          <mxGeometry x="816" y="-148" width="100" height="40" as="geometry" />
        </mxCell>
        <mxCell id="u0cgIK4iX0vnpHJxGUB2-119" value="Cost" style="ellipse;whiteSpace=wrap;html=1;align=center;" parent="1" vertex="1">
          <mxGeometry x="912" y="-202" width="100" height="40" as="geometry" />
        </mxCell>
        <mxCell id="u0cgIK4iX0vnpHJxGUB2-120" value="Adress" style="ellipse;whiteSpace=wrap;html=1;align=center;" parent="1" vertex="1">
          <mxGeometry x="779" y="9" width="100" height="40" as="geometry" />
        </mxCell>
        <mxCell id="u0cgIK4iX0vnpHJxGUB2-121" value="Adress" style="ellipse;whiteSpace=wrap;html=1;align=center;" parent="1" vertex="1">
          <mxGeometry x="626" y="254" width="100" height="40" as="geometry" />
        </mxCell>
        <mxCell id="u0cgIK4iX0vnpHJxGUB2-122" value="Date" style="ellipse;whiteSpace=wrap;html=1;align=center;" parent="1" vertex="1">
          <mxGeometry x="542" y="393" width="100" height="40" as="geometry" />
        </mxCell>
        <mxCell id="u0cgIK4iX0vnpHJxGUB2-123" value="Type" style="ellipse;whiteSpace=wrap;html=1;align=center;" parent="1" vertex="1">
          <mxGeometry x="552" y="472" width="100" height="40" as="geometry" />
        </mxCell>
        <mxCell id="u0cgIK4iX0vnpHJxGUB2-124" value="Result" style="ellipse;whiteSpace=wrap;html=1;align=center;" parent="1" vertex="1">
          <mxGeometry x="467" y="535" width="100" height="40" as="geometry" />
        </mxCell>
        <mxCell id="u0cgIK4iX0vnpHJxGUB2-125" value="PhoneNumber" style="ellipse;whiteSpace=wrap;html=1;align=center;" parent="1" vertex="1">
          <mxGeometry x="24" y="239" width="100" height="40" as="geometry" />
        </mxCell>
        <mxCell id="u0cgIK4iX0vnpHJxGUB2-127" value="PhysicianID" style="ellipse;whiteSpace=wrap;html=1;align=center;fontStyle=4;" parent="1" vertex="1">
          <mxGeometry x="884" y="-31" width="100" height="40" as="geometry" />
        </mxCell>
        <mxCell id="u0cgIK4iX0vnpHJxGUB2-128" value="Name" style="ellipse;whiteSpace=wrap;html=1;align=center;" parent="1" vertex="1">
          <mxGeometry x="879" y="-86" width="100" height="40" as="geometry" />
        </mxCell>
        <mxCell id="u0cgIK4iX0vnpHJxGUB2-129" value="Name" style="ellipse;whiteSpace=wrap;html=1;align=center;" parent="1" vertex="1">
          <mxGeometry x="936" y="-265" width="100" height="40" as="geometry" />
        </mxCell>
        <mxCell id="u0cgIK4iX0vnpHJxGUB2-130" value="Name" style="ellipse;whiteSpace=wrap;html=1;align=center;" parent="1" vertex="1">
          <mxGeometry x="619" y="-310" width="100" height="40" as="geometry" />
        </mxCell>
        <mxCell id="u0cgIK4iX0vnpHJxGUB2-131" value="Name" style="ellipse;whiteSpace=wrap;html=1;align=center;" parent="1" vertex="1">
          <mxGeometry x="87" y="373" width="100" height="40" as="geometry" />
        </mxCell>
        <mxCell id="u0cgIK4iX0vnpHJxGUB2-132" value="Name" style="ellipse;whiteSpace=wrap;html=1;align=center;" parent="1" vertex="1">
          <mxGeometry x="828" y="275" width="100" height="40" as="geometry" />
        </mxCell>
        <mxCell id="u0cgIK4iX0vnpHJxGUB2-133" value="&lt;span style=&quot;border-bottom: 1px dotted&quot;&gt;TestID&lt;/span&gt;" style="ellipse;whiteSpace=wrap;html=1;align=center;" parent="1" vertex="1">
          <mxGeometry x="335" y="512" width="100" height="40" as="geometry" />
        </mxCell>
        <mxCell id="u0cgIK4iX0vnpHJxGUB2-134" value="ProcedureID" style="ellipse;whiteSpace=wrap;html=1;align=center;fontStyle=4;" parent="1" vertex="1">
          <mxGeometry x="938" y="-326" width="100" height="40" as="geometry" />
        </mxCell>
        <mxCell id="u0cgIK4iX0vnpHJxGUB2-135" value="&lt;span style=&quot;border-bottom: 1px dotted&quot;&gt;RoomNumber&lt;/span&gt;" style="ellipse;whiteSpace=wrap;html=1;align=center;" parent="1" vertex="1">
          <mxGeometry x="124" y="-229" width="100" height="40" as="geometry" />
        </mxCell>
        <mxCell id="u0cgIK4iX0vnpHJxGUB2-137" value="AppointmentID" style="ellipse;whiteSpace=wrap;html=1;align=center;fontStyle=4;" parent="1" vertex="1">
          <mxGeometry x="438" y="-202" width="100" height="40" as="geometry" />
        </mxCell>
        <mxCell id="u0cgIK4iX0vnpHJxGUB2-138" value="MedicationID" style="ellipse;whiteSpace=wrap;html=1;align=center;fontStyle=4;direction=west;" parent="1" vertex="1">
          <mxGeometry x="329" y="-292" width="100" height="40" as="geometry" />
        </mxCell>
        <mxCell id="u0cgIK4iX0vnpHJxGUB2-139" value="ATCCode" style="ellipse;whiteSpace=wrap;html=1;align=center;" parent="1" vertex="1">
          <mxGeometry x="351" y="-354" width="100" height="40" as="geometry" />
        </mxCell>
        <mxCell id="u0cgIK4iX0vnpHJxGUB2-140" value="Type" style="ellipse;whiteSpace=wrap;html=1;align=center;" parent="1" vertex="1">
          <mxGeometry x="574" y="-394" width="100" height="40" as="geometry" />
        </mxCell>
        <mxCell id="u0cgIK4iX0vnpHJxGUB2-141" value="Description" style="ellipse;whiteSpace=wrap;html=1;align=center;" parent="1" vertex="1">
          <mxGeometry x="451" y="-399" width="100" height="40" as="geometry" />
        </mxCell>
        <mxCell id="u0cgIK4iX0vnpHJxGUB2-145" value="StartDate" style="ellipse;whiteSpace=wrap;html=1;align=center;" parent="1" vertex="1">
          <mxGeometry x="352" y="-451" width="100" height="40" as="geometry" />
        </mxCell>
        <mxCell id="u0cgIK4iX0vnpHJxGUB2-152" value="Makes" style="shape=rhombus;perimeter=rhombusPerimeter;whiteSpace=wrap;html=1;align=center;fillColor=#E6E6E6;" parent="1" vertex="1">
          <mxGeometry x="583" y="-103" width="120" height="60" as="geometry" />
        </mxCell>
        <mxCell id="u0cgIK4iX0vnpHJxGUB2-155" value="" style="endArrow=none;html=1;rounded=0;entryX=1;entryY=0.5;entryDx=0;entryDy=0;" parent="1" source="u0cgIK4iX0vnpHJxGUB2-12" target="u0cgIK4iX0vnpHJxGUB2-152" edge="1">
          <mxGeometry relative="1" as="geometry">
            <mxPoint x="571" y="-44" as="sourcePoint" />
            <mxPoint x="540" y="-21" as="targetPoint" />
          </mxGeometry>
        </mxCell>
        <mxCell id="u0cgIK4iX0vnpHJxGUB2-156" value="1" style="resizable=0;html=1;whiteSpace=wrap;align=right;verticalAlign=bottom;" parent="u0cgIK4iX0vnpHJxGUB2-155" connectable="0" vertex="1">
          <mxGeometry x="1" relative="1" as="geometry">
            <mxPoint x="3" y="22" as="offset" />
          </mxGeometry>
        </mxCell>
        <mxCell id="u0cgIK4iX0vnpHJxGUB2-158" value="" style="endArrow=none;html=1;rounded=0;entryX=0;entryY=0.5;entryDx=0;entryDy=0;exitX=1;exitY=1;exitDx=0;exitDy=0;" parent="1" source="u0cgIK4iX0vnpHJxGUB2-43" target="u0cgIK4iX0vnpHJxGUB2-152" edge="1">
          <mxGeometry relative="1" as="geometry">
            <mxPoint x="439" y="-221" as="sourcePoint" />
            <mxPoint x="450" y="-41" as="targetPoint" />
          </mxGeometry>
        </mxCell>
        <mxCell id="u0cgIK4iX0vnpHJxGUB2-159" value="N" style="resizable=0;html=1;whiteSpace=wrap;align=right;verticalAlign=bottom;" parent="u0cgIK4iX0vnpHJxGUB2-158" connectable="0" vertex="1">
          <mxGeometry x="1" relative="1" as="geometry" />
        </mxCell>
        <mxCell id="u0cgIK4iX0vnpHJxGUB2-161" value="Prescribes" style="shape=rhombus;perimeter=rhombusPerimeter;whiteSpace=wrap;html=1;align=center;fillColor=#E6E6E6;" parent="1" vertex="1">
          <mxGeometry x="583" y="-204" width="120" height="60" as="geometry" />
        </mxCell>
        <mxCell id="u0cgIK4iX0vnpHJxGUB2-162" value="" style="shape=link;html=1;rounded=0;entryX=0.5;entryY=1;entryDx=0;entryDy=0;exitX=0;exitY=0;exitDx=0;exitDy=0;" parent="1" source="u0cgIK4iX0vnpHJxGUB2-12" target="u0cgIK4iX0vnpHJxGUB2-161" edge="1">
          <mxGeometry relative="1" as="geometry">
            <mxPoint x="736" y="-45" as="sourcePoint" />
            <mxPoint x="842" y="-72" as="targetPoint" />
          </mxGeometry>
        </mxCell>
        <mxCell id="u0cgIK4iX0vnpHJxGUB2-163" value="1" style="resizable=0;html=1;whiteSpace=wrap;align=right;verticalAlign=bottom;" parent="u0cgIK4iX0vnpHJxGUB2-162" connectable="0" vertex="1">
          <mxGeometry x="1" relative="1" as="geometry">
            <mxPoint x="-3" y="25" as="offset" />
          </mxGeometry>
        </mxCell>
        <mxCell id="u0cgIK4iX0vnpHJxGUB2-164" value="" style="endArrow=none;html=1;rounded=0;entryX=0;entryY=1;entryDx=0;entryDy=0;exitX=1;exitY=0.5;exitDx=0;exitDy=0;" parent="1" source="u0cgIK4iX0vnpHJxGUB2-161" target="u0cgIK4iX0vnpHJxGUB2-52" edge="1">
          <mxGeometry relative="1" as="geometry">
            <mxPoint x="745.64" y="-300.71" as="sourcePoint" />
            <mxPoint x="754.36" y="-191.29" as="targetPoint" />
          </mxGeometry>
        </mxCell>
        <mxCell id="u0cgIK4iX0vnpHJxGUB2-165" value="N" style="resizable=0;html=1;whiteSpace=wrap;align=right;verticalAlign=bottom;" parent="u0cgIK4iX0vnpHJxGUB2-164" connectable="0" vertex="1">
          <mxGeometry x="1" relative="1" as="geometry">
            <mxPoint x="-5" y="-5" as="offset" />
          </mxGeometry>
        </mxCell>
        <mxCell id="u0cgIK4iX0vnpHJxGUB2-168" value="" style="endArrow=none;html=1;rounded=0;exitX=1;exitY=1;exitDx=0;exitDy=0;entryX=0.5;entryY=0;entryDx=0;entryDy=0;" parent="1" source="u0cgIK4iX0vnpHJxGUB2-53" target="u0cgIK4iX0vnpHJxGUB2-161" edge="1">
          <mxGeometry relative="1" as="geometry">
            <mxPoint x="527" y="-344" as="sourcePoint" />
            <mxPoint x="687" y="-344" as="targetPoint" />
          </mxGeometry>
        </mxCell>
        <mxCell id="u0cgIK4iX0vnpHJxGUB2-169" value="N" style="resizable=0;html=1;whiteSpace=wrap;align=right;verticalAlign=bottom;" parent="u0cgIK4iX0vnpHJxGUB2-168" connectable="0" vertex="1">
          <mxGeometry x="1" relative="1" as="geometry">
            <mxPoint x="-5" y="-11" as="offset" />
          </mxGeometry>
        </mxCell>
        <mxCell id="u0cgIK4iX0vnpHJxGUB2-170" value="Receives" style="shape=rhombus;perimeter=rhombusPerimeter;whiteSpace=wrap;html=1;align=center;fillColor=#E6E6E6;" parent="1" vertex="1">
          <mxGeometry x="477" y="31.5" width="120" height="60" as="geometry" />
        </mxCell>
        <mxCell id="u0cgIK4iX0vnpHJxGUB2-171" value="" style="endArrow=none;html=1;rounded=0;exitX=0;exitY=0;exitDx=0;exitDy=0;entryX=1;entryY=0.5;entryDx=0;entryDy=0;" parent="1" source="u0cgIK4iX0vnpHJxGUB2-23" target="u0cgIK4iX0vnpHJxGUB2-170" edge="1">
          <mxGeometry relative="1" as="geometry">
            <mxPoint x="596" y="58" as="sourcePoint" />
            <mxPoint x="583" y="69" as="targetPoint" />
          </mxGeometry>
        </mxCell>
        <mxCell id="u0cgIK4iX0vnpHJxGUB2-172" value="1" style="resizable=0;html=1;whiteSpace=wrap;align=right;verticalAlign=bottom;" parent="u0cgIK4iX0vnpHJxGUB2-171" connectable="0" vertex="1">
          <mxGeometry x="1" relative="1" as="geometry" />
        </mxCell>
        <mxCell id="u0cgIK4iX0vnpHJxGUB2-173" value="" style="endArrow=none;html=1;rounded=0;exitX=0.75;exitY=1;exitDx=0;exitDy=0;entryX=0;entryY=0.5;entryDx=0;entryDy=0;" parent="1" source="u0cgIK4iX0vnpHJxGUB2-43" target="u0cgIK4iX0vnpHJxGUB2-170" edge="1">
          <mxGeometry relative="1" as="geometry">
            <mxPoint x="596" y="58" as="sourcePoint" />
            <mxPoint x="756" y="58" as="targetPoint" />
          </mxGeometry>
        </mxCell>
        <mxCell id="u0cgIK4iX0vnpHJxGUB2-174" value="N" style="resizable=0;html=1;whiteSpace=wrap;align=right;verticalAlign=bottom;" parent="u0cgIK4iX0vnpHJxGUB2-173" connectable="0" vertex="1">
          <mxGeometry x="1" relative="1" as="geometry">
            <mxPoint x="13" y="-16" as="offset" />
          </mxGeometry>
        </mxCell>
        <mxCell id="u0cgIK4iX0vnpHJxGUB2-175" value="Takes" style="shape=rhombus;perimeter=rhombusPerimeter;whiteSpace=wrap;html=1;align=center;fillColor=#E6E6E6;" parent="1" vertex="1">
          <mxGeometry x="418" y="294" width="120" height="60" as="geometry" />
        </mxCell>
        <mxCell id="u0cgIK4iX0vnpHJxGUB2-176" value="" style="endArrow=none;html=1;rounded=0;entryX=0.5;entryY=0;entryDx=0;entryDy=0;exitX=0;exitY=1;exitDx=0;exitDy=0;" parent="1" source="u0cgIK4iX0vnpHJxGUB2-23" target="u0cgIK4iX0vnpHJxGUB2-175" edge="1">
          <mxGeometry relative="1" as="geometry">
            <mxPoint x="596" y="214" as="sourcePoint" />
            <mxPoint x="756" y="214" as="targetPoint" />
          </mxGeometry>
        </mxCell>
        <mxCell id="u0cgIK4iX0vnpHJxGUB2-177" value="1" style="resizable=0;html=1;whiteSpace=wrap;align=right;verticalAlign=bottom;" parent="u0cgIK4iX0vnpHJxGUB2-176" connectable="0" vertex="1">
          <mxGeometry x="1" relative="1" as="geometry">
            <mxPoint y="-3" as="offset" />
          </mxGeometry>
        </mxCell>
        <mxCell id="u0cgIK4iX0vnpHJxGUB2-178" value="" style="endArrow=none;html=1;rounded=0;entryX=0.5;entryY=1;entryDx=0;entryDy=0;exitX=0.25;exitY=0;exitDx=0;exitDy=0;" parent="1" source="u0cgIK4iX0vnpHJxGUB2-54" target="u0cgIK4iX0vnpHJxGUB2-175" edge="1">
          <mxGeometry relative="1" as="geometry">
            <mxPoint x="596" y="214" as="sourcePoint" />
            <mxPoint x="756" y="214" as="targetPoint" />
          </mxGeometry>
        </mxCell>
        <mxCell id="u0cgIK4iX0vnpHJxGUB2-179" value="N" style="resizable=0;html=1;whiteSpace=wrap;align=right;verticalAlign=bottom;" parent="u0cgIK4iX0vnpHJxGUB2-178" connectable="0" vertex="1">
          <mxGeometry x="1" relative="1" as="geometry">
            <mxPoint x="16" y="19" as="offset" />
          </mxGeometry>
        </mxCell>
        <mxCell id="u0cgIK4iX0vnpHJxGUB2-180" value="AssignedTo" style="shape=rhombus;perimeter=rhombusPerimeter;whiteSpace=wrap;html=1;align=center;fillColor=#E6E6E6;" parent="1" vertex="1">
          <mxGeometry x="297" y="32.5" width="112" height="59" as="geometry" />
        </mxCell>
        <mxCell id="u0cgIK4iX0vnpHJxGUB2-181" value="" style="endArrow=none;html=1;rounded=0;exitX=1;exitY=1;exitDx=0;exitDy=0;entryX=0;entryY=0.5;entryDx=0;entryDy=0;" parent="1" source="u0cgIK4iX0vnpHJxGUB2-63" target="u0cgIK4iX0vnpHJxGUB2-180" edge="1">
          <mxGeometry relative="1" as="geometry">
            <mxPoint x="346" y="-88" as="sourcePoint" />
            <mxPoint x="506" y="-88" as="targetPoint" />
          </mxGeometry>
        </mxCell>
        <mxCell id="u0cgIK4iX0vnpHJxGUB2-182" value="1" style="resizable=0;html=1;whiteSpace=wrap;align=right;verticalAlign=bottom;" parent="u0cgIK4iX0vnpHJxGUB2-181" connectable="0" vertex="1">
          <mxGeometry x="1" relative="1" as="geometry">
            <mxPoint x="11" y="-15" as="offset" />
          </mxGeometry>
        </mxCell>
        <mxCell id="u0cgIK4iX0vnpHJxGUB2-183" value="" style="endArrow=none;html=1;rounded=0;entryX=1;entryY=0.5;entryDx=0;entryDy=0;exitX=0.25;exitY=1;exitDx=0;exitDy=0;" parent="1" source="u0cgIK4iX0vnpHJxGUB2-43" target="u0cgIK4iX0vnpHJxGUB2-180" edge="1">
          <mxGeometry relative="1" as="geometry">
            <mxPoint x="346" y="-88" as="sourcePoint" />
            <mxPoint x="506" y="-88" as="targetPoint" />
          </mxGeometry>
        </mxCell>
        <mxCell id="u0cgIK4iX0vnpHJxGUB2-184" value="N" style="resizable=0;html=1;whiteSpace=wrap;align=right;verticalAlign=bottom;" parent="u0cgIK4iX0vnpHJxGUB2-183" connectable="0" vertex="1">
          <mxGeometry x="1" relative="1" as="geometry">
            <mxPoint x="-9" y="-13" as="offset" />
          </mxGeometry>
        </mxCell>
        <mxCell id="u0cgIK4iX0vnpHJxGUB2-185" value="" style="endArrow=none;html=1;rounded=0;entryX=0.5;entryY=1;entryDx=0;entryDy=0;exitX=1;exitY=0;exitDx=0;exitDy=0;" parent="1" source="u0cgIK4iX0vnpHJxGUB2-24" target="u0cgIK4iX0vnpHJxGUB2-180" edge="1">
          <mxGeometry relative="1" as="geometry">
            <mxPoint x="501" y="10" as="sourcePoint" />
            <mxPoint x="661" y="10" as="targetPoint" />
          </mxGeometry>
        </mxCell>
        <mxCell id="u0cgIK4iX0vnpHJxGUB2-186" value="1" style="resizable=0;html=1;whiteSpace=wrap;align=right;verticalAlign=bottom;" parent="u0cgIK4iX0vnpHJxGUB2-185" connectable="0" vertex="1">
          <mxGeometry x="1" relative="1" as="geometry">
            <mxPoint x="-18" y="15" as="offset" />
          </mxGeometry>
        </mxCell>
        <mxCell id="u0cgIK4iX0vnpHJxGUB2-187" value="OnCall" style="shape=rhombus;perimeter=rhombusPerimeter;whiteSpace=wrap;html=1;align=center;fillColor=#E6E6E6;" parent="1" vertex="1">
          <mxGeometry x="127" y="38" width="120" height="60" as="geometry" />
        </mxCell>
        <mxCell id="u0cgIK4iX0vnpHJxGUB2-188" value="" style="endArrow=none;html=1;rounded=0;exitX=0;exitY=0;exitDx=0;exitDy=0;entryX=1;entryY=0.5;entryDx=0;entryDy=0;" parent="1" source="u0cgIK4iX0vnpHJxGUB2-24" target="u0cgIK4iX0vnpHJxGUB2-187" edge="1">
          <mxGeometry relative="1" as="geometry">
            <mxPoint x="501" y="103" as="sourcePoint" />
            <mxPoint x="661" y="103" as="targetPoint" />
          </mxGeometry>
        </mxCell>
        <mxCell id="u0cgIK4iX0vnpHJxGUB2-189" value="1" style="resizable=0;html=1;whiteSpace=wrap;align=right;verticalAlign=bottom;" parent="u0cgIK4iX0vnpHJxGUB2-188" connectable="0" vertex="1">
          <mxGeometry x="1" relative="1" as="geometry">
            <mxPoint y="-7" as="offset" />
          </mxGeometry>
        </mxCell>
        <mxCell id="u0cgIK4iX0vnpHJxGUB2-190" value="" style="endArrow=none;html=1;rounded=0;exitX=0;exitY=1;exitDx=0;exitDy=0;entryX=0;entryY=0.5;entryDx=0;entryDy=0;" parent="1" source="u0cgIK4iX0vnpHJxGUB2-63" target="u0cgIK4iX0vnpHJxGUB2-187" edge="1">
          <mxGeometry relative="1" as="geometry">
            <mxPoint x="501" y="103" as="sourcePoint" />
            <mxPoint x="661" y="103" as="targetPoint" />
          </mxGeometry>
        </mxCell>
        <mxCell id="u0cgIK4iX0vnpHJxGUB2-191" value="N" style="resizable=0;html=1;whiteSpace=wrap;align=right;verticalAlign=bottom;" parent="u0cgIK4iX0vnpHJxGUB2-190" connectable="0" vertex="1">
          <mxGeometry x="1" relative="1" as="geometry">
            <mxPoint x="20" y="-16" as="offset" />
          </mxGeometry>
        </mxCell>
        <mxCell id="NRWhKprobTQQcjuas3m--3" value="EndTime" style="ellipse;whiteSpace=wrap;html=1;align=center;" parent="1" vertex="1">
          <mxGeometry x="358" y="142" width="100" height="40" as="geometry" />
        </mxCell>
        <mxCell id="NRWhKprobTQQcjuas3m--4" value="StartTime" style="ellipse;whiteSpace=wrap;html=1;align=center;" parent="1" vertex="1">
          <mxGeometry x="400" y="89" width="100" height="40" as="geometry" />
        </mxCell>
        <mxCell id="Gh-pE5bJRLLb5fKhqsio-6" value="" style="endArrow=none;html=1;rounded=0;exitX=0.685;exitY=0.01;exitDx=0;exitDy=0;exitPerimeter=0;entryX=0.5;entryY=1;entryDx=0;entryDy=0;" edge="1" parent="1" source="u0cgIK4iX0vnpHJxGUB2-12" target="u0cgIK4iX0vnpHJxGUB2-118">
          <mxGeometry relative="1" as="geometry">
            <mxPoint x="723" y="-56" as="sourcePoint" />
            <mxPoint x="883" y="-56" as="targetPoint" />
          </mxGeometry>
        </mxCell>
        <mxCell id="Gh-pE5bJRLLb5fKhqsio-7" value="" style="endArrow=none;html=1;rounded=0;entryX=0.13;entryY=0.8;entryDx=0;entryDy=0;entryPerimeter=0;exitX=1;exitY=0.5;exitDx=0;exitDy=0;" edge="1" parent="1" source="u0cgIK4iX0vnpHJxGUB2-12" target="u0cgIK4iX0vnpHJxGUB2-128">
          <mxGeometry relative="1" as="geometry">
            <mxPoint x="723" y="-56" as="sourcePoint" />
            <mxPoint x="883" y="-56" as="targetPoint" />
          </mxGeometry>
        </mxCell>
        <mxCell id="Gh-pE5bJRLLb5fKhqsio-8" value="" style="endArrow=none;html=1;rounded=0;entryX=0;entryY=0;entryDx=0;entryDy=0;exitX=1;exitY=0.75;exitDx=0;exitDy=0;" edge="1" parent="1" source="u0cgIK4iX0vnpHJxGUB2-12" target="u0cgIK4iX0vnpHJxGUB2-127">
          <mxGeometry relative="1" as="geometry">
            <mxPoint x="723" y="-56" as="sourcePoint" />
            <mxPoint x="883" y="-56" as="targetPoint" />
          </mxGeometry>
        </mxCell>
        <mxCell id="Gh-pE5bJRLLb5fKhqsio-9" value="" style="endArrow=none;html=1;rounded=0;exitX=0.5;exitY=1;exitDx=0;exitDy=0;" edge="1" parent="1" source="u0cgIK4iX0vnpHJxGUB2-12" target="u0cgIK4iX0vnpHJxGUB2-120">
          <mxGeometry relative="1" as="geometry">
            <mxPoint x="723" y="-56" as="sourcePoint" />
            <mxPoint x="883" y="-56" as="targetPoint" />
          </mxGeometry>
        </mxCell>
        <mxCell id="Gh-pE5bJRLLb5fKhqsio-11" value="" style="endArrow=none;html=1;rounded=0;entryX=0;entryY=0.5;entryDx=0;entryDy=0;exitX=1;exitY=0.5;exitDx=0;exitDy=0;" edge="1" parent="1" source="u0cgIK4iX0vnpHJxGUB2-100" target="u0cgIK4iX0vnpHJxGUB2-112">
          <mxGeometry relative="1" as="geometry">
            <mxPoint x="553" y="206" as="sourcePoint" />
            <mxPoint x="713" y="206" as="targetPoint" />
          </mxGeometry>
        </mxCell>
        <mxCell id="Gh-pE5bJRLLb5fKhqsio-12" value="" style="endArrow=none;html=1;rounded=0;entryX=0;entryY=1;entryDx=0;entryDy=0;exitX=1;exitY=0;exitDx=0;exitDy=0;" edge="1" parent="1" source="u0cgIK4iX0vnpHJxGUB2-100" target="u0cgIK4iX0vnpHJxGUB2-113">
          <mxGeometry relative="1" as="geometry">
            <mxPoint x="553" y="206" as="sourcePoint" />
            <mxPoint x="713" y="206" as="targetPoint" />
          </mxGeometry>
        </mxCell>
        <mxCell id="Gh-pE5bJRLLb5fKhqsio-13" value="" style="endArrow=none;html=1;rounded=0;entryX=0;entryY=1;entryDx=0;entryDy=0;exitX=1;exitY=0.25;exitDx=0;exitDy=0;" edge="1" parent="1" source="u0cgIK4iX0vnpHJxGUB2-23" target="u0cgIK4iX0vnpHJxGUB2-100">
          <mxGeometry relative="1" as="geometry">
            <mxPoint x="553" y="206" as="sourcePoint" />
            <mxPoint x="713" y="206" as="targetPoint" />
          </mxGeometry>
        </mxCell>
        <mxCell id="Gh-pE5bJRLLb5fKhqsio-14" value="" style="endArrow=none;html=1;rounded=0;entryX=0;entryY=0.5;entryDx=0;entryDy=0;exitX=1;exitY=0.5;exitDx=0;exitDy=0;" edge="1" parent="1" source="u0cgIK4iX0vnpHJxGUB2-23" target="Gh-pE5bJRLLb5fKhqsio-45">
          <mxGeometry relative="1" as="geometry">
            <mxPoint x="553" y="206" as="sourcePoint" />
            <mxPoint x="671.6000000000001" y="192" as="targetPoint" />
          </mxGeometry>
        </mxCell>
        <mxCell id="Gh-pE5bJRLLb5fKhqsio-15" value="" style="endArrow=none;html=1;rounded=0;entryX=0.254;entryY=0.025;entryDx=0;entryDy=0;entryPerimeter=0;exitX=1;exitY=1;exitDx=0;exitDy=0;" edge="1" parent="1" source="u0cgIK4iX0vnpHJxGUB2-23" target="u0cgIK4iX0vnpHJxGUB2-121">
          <mxGeometry relative="1" as="geometry">
            <mxPoint x="553" y="206" as="sourcePoint" />
            <mxPoint x="713" y="206" as="targetPoint" />
          </mxGeometry>
        </mxCell>
        <mxCell id="Gh-pE5bJRLLb5fKhqsio-16" value="" style="endArrow=none;html=1;rounded=0;exitX=0.5;exitY=1;exitDx=0;exitDy=0;entryX=0.5;entryY=0;entryDx=0;entryDy=0;" edge="1" parent="1" source="u0cgIK4iX0vnpHJxGUB2-23" target="u0cgIK4iX0vnpHJxGUB2-98">
          <mxGeometry relative="1" as="geometry">
            <mxPoint x="553" y="206" as="sourcePoint" />
            <mxPoint x="713" y="206" as="targetPoint" />
          </mxGeometry>
        </mxCell>
        <mxCell id="Gh-pE5bJRLLb5fKhqsio-17" value="" style="endArrow=none;html=1;rounded=0;exitX=1;exitY=0;exitDx=0;exitDy=0;entryX=0;entryY=1;entryDx=0;entryDy=0;" edge="1" parent="1" source="u0cgIK4iX0vnpHJxGUB2-54" target="u0cgIK4iX0vnpHJxGUB2-122">
          <mxGeometry relative="1" as="geometry">
            <mxPoint x="553" y="306" as="sourcePoint" />
            <mxPoint x="713" y="306" as="targetPoint" />
          </mxGeometry>
        </mxCell>
        <mxCell id="Gh-pE5bJRLLb5fKhqsio-18" value="" style="endArrow=none;html=1;rounded=0;entryX=1;entryY=0;entryDx=0;entryDy=0;exitX=0.25;exitY=1;exitDx=0;exitDy=0;" edge="1" parent="1" source="u0cgIK4iX0vnpHJxGUB2-54" target="u0cgIK4iX0vnpHJxGUB2-133">
          <mxGeometry relative="1" as="geometry">
            <mxPoint x="553" y="506" as="sourcePoint" />
            <mxPoint x="713" y="506" as="targetPoint" />
          </mxGeometry>
        </mxCell>
        <mxCell id="Gh-pE5bJRLLb5fKhqsio-19" value="" style="endArrow=none;html=1;rounded=0;entryX=0.406;entryY=0.045;entryDx=0;entryDy=0;entryPerimeter=0;exitX=0.673;exitY=0.967;exitDx=0;exitDy=0;exitPerimeter=0;" edge="1" parent="1" source="u0cgIK4iX0vnpHJxGUB2-54" target="u0cgIK4iX0vnpHJxGUB2-124">
          <mxGeometry relative="1" as="geometry">
            <mxPoint x="553" y="506" as="sourcePoint" />
            <mxPoint x="713" y="506" as="targetPoint" />
          </mxGeometry>
        </mxCell>
        <mxCell id="Gh-pE5bJRLLb5fKhqsio-20" value="" style="endArrow=none;html=1;rounded=0;exitX=1;exitY=1;exitDx=0;exitDy=0;entryX=0.076;entryY=0.8;entryDx=0;entryDy=0;entryPerimeter=0;" edge="1" parent="1" source="u0cgIK4iX0vnpHJxGUB2-54" target="u0cgIK4iX0vnpHJxGUB2-123">
          <mxGeometry relative="1" as="geometry">
            <mxPoint x="553" y="506" as="sourcePoint" />
            <mxPoint x="713" y="506" as="targetPoint" />
          </mxGeometry>
        </mxCell>
        <mxCell id="Gh-pE5bJRLLb5fKhqsio-22" value="" style="endArrow=none;html=1;rounded=0;entryX=0.28;entryY=0;entryDx=0;entryDy=0;entryPerimeter=0;exitX=0.75;exitY=1;exitDx=0;exitDy=0;" edge="1" parent="1" source="u0cgIK4iX0vnpHJxGUB2-24" target="u0cgIK4iX0vnpHJxGUB2-99">
          <mxGeometry relative="1" as="geometry">
            <mxPoint x="101" y="302" as="sourcePoint" />
            <mxPoint x="261" y="302" as="targetPoint" />
          </mxGeometry>
        </mxCell>
        <mxCell id="Gh-pE5bJRLLb5fKhqsio-23" value="" style="endArrow=none;html=1;rounded=0;exitX=0.5;exitY=0;exitDx=0;exitDy=0;entryX=0.165;entryY=0.99;entryDx=0;entryDy=0;entryPerimeter=0;" edge="1" parent="1" source="u0cgIK4iX0vnpHJxGUB2-131" target="u0cgIK4iX0vnpHJxGUB2-24">
          <mxGeometry relative="1" as="geometry">
            <mxPoint x="101" y="302" as="sourcePoint" />
            <mxPoint x="261" y="302" as="targetPoint" />
          </mxGeometry>
        </mxCell>
        <mxCell id="Gh-pE5bJRLLb5fKhqsio-24" value="" style="endArrow=none;html=1;rounded=0;exitX=1;exitY=0;exitDx=0;exitDy=0;entryX=0.018;entryY=0.643;entryDx=0;entryDy=0;entryPerimeter=0;" edge="1" parent="1" source="u0cgIK4iX0vnpHJxGUB2-111" target="u0cgIK4iX0vnpHJxGUB2-24">
          <mxGeometry relative="1" as="geometry">
            <mxPoint x="101" y="302" as="sourcePoint" />
            <mxPoint x="261" y="302" as="targetPoint" />
          </mxGeometry>
        </mxCell>
        <mxCell id="Gh-pE5bJRLLb5fKhqsio-25" value="" style="endArrow=none;html=1;rounded=0;exitX=1;exitY=1;exitDx=0;exitDy=0;entryX=0;entryY=0.25;entryDx=0;entryDy=0;" edge="1" parent="1" source="u0cgIK4iX0vnpHJxGUB2-125" target="u0cgIK4iX0vnpHJxGUB2-24">
          <mxGeometry relative="1" as="geometry">
            <mxPoint x="101" y="302" as="sourcePoint" />
            <mxPoint x="261" y="302" as="targetPoint" />
          </mxGeometry>
        </mxCell>
        <mxCell id="Gh-pE5bJRLLb5fKhqsio-26" value="" style="endArrow=none;html=1;rounded=0;entryX=0.5;entryY=0;entryDx=0;entryDy=0;exitX=0.5;exitY=1;exitDx=0;exitDy=0;" edge="1" parent="1" source="u0cgIK4iX0vnpHJxGUB2-135" target="u0cgIK4iX0vnpHJxGUB2-63">
          <mxGeometry relative="1" as="geometry">
            <mxPoint x="123" y="-106" as="sourcePoint" />
            <mxPoint x="283" y="-106" as="targetPoint" />
          </mxGeometry>
        </mxCell>
        <mxCell id="Gh-pE5bJRLLb5fKhqsio-27" value="" style="endArrow=none;html=1;rounded=0;exitX=0.97;exitY=0.25;exitDx=0;exitDy=0;exitPerimeter=0;entryX=0;entryY=0.75;entryDx=0;entryDy=0;" edge="1" parent="1" source="u0cgIK4iX0vnpHJxGUB2-106" target="u0cgIK4iX0vnpHJxGUB2-63">
          <mxGeometry relative="1" as="geometry">
            <mxPoint x="123" y="-106" as="sourcePoint" />
            <mxPoint x="283" y="-106" as="targetPoint" />
          </mxGeometry>
        </mxCell>
        <mxCell id="Gh-pE5bJRLLb5fKhqsio-28" value="" style="endArrow=none;html=1;rounded=0;exitX=0.928;exitY=0.86;exitDx=0;exitDy=0;exitPerimeter=0;entryX=0;entryY=0.25;entryDx=0;entryDy=0;" edge="1" parent="1" source="u0cgIK4iX0vnpHJxGUB2-105" target="u0cgIK4iX0vnpHJxGUB2-63">
          <mxGeometry relative="1" as="geometry">
            <mxPoint x="123" y="-106" as="sourcePoint" />
            <mxPoint x="283" y="-106" as="targetPoint" />
          </mxGeometry>
        </mxCell>
        <mxCell id="Gh-pE5bJRLLb5fKhqsio-29" value="" style="endArrow=none;html=1;rounded=0;entryX=0;entryY=0;entryDx=0;entryDy=0;exitX=1;exitY=1;exitDx=0;exitDy=0;" edge="1" parent="1" source="u0cgIK4iX0vnpHJxGUB2-52" target="u0cgIK4iX0vnpHJxGUB2-119">
          <mxGeometry relative="1" as="geometry">
            <mxPoint x="501" y="-205" as="sourcePoint" />
            <mxPoint x="661" y="-205" as="targetPoint" />
          </mxGeometry>
        </mxCell>
        <mxCell id="Gh-pE5bJRLLb5fKhqsio-30" value="" style="endArrow=none;html=1;rounded=0;entryX=0;entryY=0.5;entryDx=0;entryDy=0;exitX=1;exitY=0.5;exitDx=0;exitDy=0;" edge="1" parent="1" source="u0cgIK4iX0vnpHJxGUB2-52" target="u0cgIK4iX0vnpHJxGUB2-129">
          <mxGeometry relative="1" as="geometry">
            <mxPoint x="501" y="-205" as="sourcePoint" />
            <mxPoint x="661" y="-205" as="targetPoint" />
          </mxGeometry>
        </mxCell>
        <mxCell id="Gh-pE5bJRLLb5fKhqsio-31" value="" style="endArrow=none;html=1;rounded=0;entryX=0;entryY=1;entryDx=0;entryDy=0;exitX=1;exitY=0;exitDx=0;exitDy=0;" edge="1" parent="1" source="u0cgIK4iX0vnpHJxGUB2-52" target="u0cgIK4iX0vnpHJxGUB2-134">
          <mxGeometry relative="1" as="geometry">
            <mxPoint x="501" y="-205" as="sourcePoint" />
            <mxPoint x="661" y="-205" as="targetPoint" />
          </mxGeometry>
        </mxCell>
        <mxCell id="Gh-pE5bJRLLb5fKhqsio-32" value="" style="endArrow=none;html=1;rounded=0;exitX=0.5;exitY=1;exitDx=0;exitDy=0;entryX=0.75;entryY=0;entryDx=0;entryDy=0;" edge="1" parent="1" source="u0cgIK4iX0vnpHJxGUB2-137" target="u0cgIK4iX0vnpHJxGUB2-43">
          <mxGeometry relative="1" as="geometry">
            <mxPoint x="264" y="-58" as="sourcePoint" />
            <mxPoint x="424" y="-58" as="targetPoint" />
          </mxGeometry>
        </mxCell>
        <mxCell id="Gh-pE5bJRLLb5fKhqsio-33" value="" style="endArrow=none;html=1;rounded=0;entryX=0.25;entryY=0;entryDx=0;entryDy=0;exitX=0.745;exitY=0.914;exitDx=0;exitDy=0;exitPerimeter=0;" edge="1" parent="1" source="u0cgIK4iX0vnpHJxGUB2-102" target="u0cgIK4iX0vnpHJxGUB2-43">
          <mxGeometry relative="1" as="geometry">
            <mxPoint x="264" y="-58" as="sourcePoint" />
            <mxPoint x="424" y="-58" as="targetPoint" />
          </mxGeometry>
        </mxCell>
        <mxCell id="Gh-pE5bJRLLb5fKhqsio-34" value="" style="endArrow=none;html=1;rounded=0;exitX=0.006;exitY=0.376;exitDx=0;exitDy=0;exitPerimeter=0;entryX=1;entryY=0.5;entryDx=0;entryDy=0;" edge="1" parent="1" source="u0cgIK4iX0vnpHJxGUB2-43" target="u0cgIK4iX0vnpHJxGUB2-103">
          <mxGeometry relative="1" as="geometry">
            <mxPoint x="264" y="-58" as="sourcePoint" />
            <mxPoint x="424" y="-58" as="targetPoint" />
          </mxGeometry>
        </mxCell>
        <mxCell id="u0cgIK4iX0vnpHJxGUB2-144" value="EndDate" style="ellipse;whiteSpace=wrap;html=1;align=center;" parent="1" vertex="1">
          <mxGeometry x="452" y="-491" width="100" height="40" as="geometry" />
        </mxCell>
        <mxCell id="Gh-pE5bJRLLb5fKhqsio-36" value="" style="endArrow=none;html=1;rounded=0;exitX=0;exitY=0.5;exitDx=0;exitDy=0;entryX=0;entryY=0.5;entryDx=0;entryDy=0;" edge="1" parent="1" source="u0cgIK4iX0vnpHJxGUB2-53" target="u0cgIK4iX0vnpHJxGUB2-138">
          <mxGeometry relative="1" as="geometry">
            <mxPoint x="609" y="-268" as="sourcePoint" />
            <mxPoint x="769" y="-268" as="targetPoint" />
          </mxGeometry>
        </mxCell>
        <mxCell id="Gh-pE5bJRLLb5fKhqsio-37" value="" style="endArrow=none;html=1;rounded=0;exitX=0;exitY=0;exitDx=0;exitDy=0;entryX=0.947;entryY=0.813;entryDx=0;entryDy=0;entryPerimeter=0;" edge="1" parent="1" source="u0cgIK4iX0vnpHJxGUB2-53" target="u0cgIK4iX0vnpHJxGUB2-139">
          <mxGeometry relative="1" as="geometry">
            <mxPoint x="609" y="-268" as="sourcePoint" />
            <mxPoint x="769" y="-268" as="targetPoint" />
          </mxGeometry>
        </mxCell>
        <mxCell id="Gh-pE5bJRLLb5fKhqsio-38" value="" style="endArrow=none;html=1;rounded=0;exitX=1;exitY=0.5;exitDx=0;exitDy=0;entryX=0.058;entryY=0.713;entryDx=0;entryDy=0;entryPerimeter=0;" edge="1" parent="1" source="u0cgIK4iX0vnpHJxGUB2-53" target="u0cgIK4iX0vnpHJxGUB2-130">
          <mxGeometry relative="1" as="geometry">
            <mxPoint x="609" y="-268" as="sourcePoint" />
            <mxPoint x="769" y="-268" as="targetPoint" />
          </mxGeometry>
        </mxCell>
        <mxCell id="Gh-pE5bJRLLb5fKhqsio-39" value="" style="endArrow=none;html=1;rounded=0;exitX=0.5;exitY=0;exitDx=0;exitDy=0;entryX=0.625;entryY=0.986;entryDx=0;entryDy=0;entryPerimeter=0;" edge="1" parent="1" source="u0cgIK4iX0vnpHJxGUB2-53" target="u0cgIK4iX0vnpHJxGUB2-141">
          <mxGeometry relative="1" as="geometry">
            <mxPoint x="609" y="-268" as="sourcePoint" />
            <mxPoint x="769" y="-268" as="targetPoint" />
          </mxGeometry>
        </mxCell>
        <mxCell id="Gh-pE5bJRLLb5fKhqsio-40" value="" style="endArrow=none;html=1;rounded=0;exitX=0.5;exitY=0;exitDx=0;exitDy=0;entryX=0.653;entryY=0.962;entryDx=0;entryDy=0;entryPerimeter=0;" edge="1" parent="1" source="u0cgIK4iX0vnpHJxGUB2-141" target="u0cgIK4iX0vnpHJxGUB2-144">
          <mxGeometry relative="1" as="geometry">
            <mxPoint x="609" y="-268" as="sourcePoint" />
            <mxPoint x="769" y="-268" as="targetPoint" />
          </mxGeometry>
        </mxCell>
        <mxCell id="Gh-pE5bJRLLb5fKhqsio-41" value="" style="endArrow=none;html=1;rounded=0;exitX=0.5;exitY=0;exitDx=0;exitDy=0;entryX=0.952;entryY=0.8;entryDx=0;entryDy=0;entryPerimeter=0;" edge="1" parent="1" source="u0cgIK4iX0vnpHJxGUB2-141" target="u0cgIK4iX0vnpHJxGUB2-145">
          <mxGeometry relative="1" as="geometry">
            <mxPoint x="609" y="-268" as="sourcePoint" />
            <mxPoint x="769" y="-268" as="targetPoint" />
          </mxGeometry>
        </mxCell>
        <mxCell id="Gh-pE5bJRLLb5fKhqsio-42" value="" style="endArrow=none;html=1;rounded=0;exitX=0.5;exitY=1;exitDx=0;exitDy=0;entryX=0.378;entryY=0.01;entryDx=0;entryDy=0;entryPerimeter=0;" edge="1" parent="1" source="u0cgIK4iX0vnpHJxGUB2-1" target="u0cgIK4iX0vnpHJxGUB2-107">
          <mxGeometry relative="1" as="geometry">
            <mxPoint x="738" y="247" as="sourcePoint" />
            <mxPoint x="898" y="247" as="targetPoint" />
          </mxGeometry>
        </mxCell>
        <mxCell id="Gh-pE5bJRLLb5fKhqsio-43" value="" style="endArrow=none;html=1;rounded=0;exitX=1;exitY=0.5;exitDx=0;exitDy=0;entryX=0;entryY=0;entryDx=0;entryDy=0;" edge="1" parent="1" source="u0cgIK4iX0vnpHJxGUB2-1" target="u0cgIK4iX0vnpHJxGUB2-97">
          <mxGeometry relative="1" as="geometry">
            <mxPoint x="738" y="247" as="sourcePoint" />
            <mxPoint x="898" y="247" as="targetPoint" />
          </mxGeometry>
        </mxCell>
        <mxCell id="Gh-pE5bJRLLb5fKhqsio-44" value="" style="endArrow=none;html=1;rounded=0;exitX=1;exitY=0;exitDx=0;exitDy=0;entryX=0;entryY=1;entryDx=0;entryDy=0;" edge="1" parent="1" source="u0cgIK4iX0vnpHJxGUB2-1" target="u0cgIK4iX0vnpHJxGUB2-132">
          <mxGeometry relative="1" as="geometry">
            <mxPoint x="738" y="247" as="sourcePoint" />
            <mxPoint x="898" y="247" as="targetPoint" />
          </mxGeometry>
        </mxCell>
        <mxCell id="Gh-pE5bJRLLb5fKhqsio-45" value="PatientID" style="ellipse;whiteSpace=wrap;html=1;align=center;fontStyle=4;" vertex="1" parent="1">
          <mxGeometry x="671" y="202" width="100" height="40" as="geometry" />
        </mxCell>
        <mxCell id="Gh-pE5bJRLLb5fKhqsio-46" value="InsuranceCode" style="ellipse;whiteSpace=wrap;html=1;align=center;" vertex="1" parent="1">
          <mxGeometry x="597" y="100" width="100" height="40" as="geometry" />
        </mxCell>
        <mxCell id="Gh-pE5bJRLLb5fKhqsio-47" value="" style="endArrow=none;html=1;rounded=0;exitX=0.658;exitY=0;exitDx=0;exitDy=0;exitPerimeter=0;entryX=0.253;entryY=0.94;entryDx=0;entryDy=0;entryPerimeter=0;" edge="1" parent="1" source="u0cgIK4iX0vnpHJxGUB2-23" target="Gh-pE5bJRLLb5fKhqsio-46">
          <mxGeometry relative="1" as="geometry">
            <mxPoint x="699" y="176" as="sourcePoint" />
            <mxPoint x="859" y="176" as="targetPoint" />
          </mxGeometry>
        </mxCell>
        <mxCell id="Gh-pE5bJRLLb5fKhqsio-48" value="" style="endArrow=none;html=1;rounded=0;exitX=1;exitY=0;exitDx=0;exitDy=0;entryX=0.5;entryY=1;entryDx=0;entryDy=0;" edge="1" parent="1" source="u0cgIK4iX0vnpHJxGUB2-53" target="u0cgIK4iX0vnpHJxGUB2-140">
          <mxGeometry relative="1" as="geometry">
            <mxPoint x="509" y="-238" as="sourcePoint" />
            <mxPoint x="669" y="-238" as="targetPoint" />
          </mxGeometry>
        </mxCell>
        <mxCell id="Gh-pE5bJRLLb5fKhqsio-49" value="StartTime" style="ellipse;whiteSpace=wrap;html=1;align=center;" vertex="1" parent="1">
          <mxGeometry x="24" y="98" width="100" height="40" as="geometry" />
        </mxCell>
        <mxCell id="Gh-pE5bJRLLb5fKhqsio-50" value="EndTime" style="ellipse;whiteSpace=wrap;html=1;align=center;" vertex="1" parent="1">
          <mxGeometry x="-6" y="38" width="100" height="40" as="geometry" />
        </mxCell>
        <mxCell id="Gh-pE5bJRLLb5fKhqsio-51" value="" style="endArrow=none;html=1;rounded=0;exitX=0.821;exitY=0.73;exitDx=0;exitDy=0;exitPerimeter=0;entryX=0;entryY=0;entryDx=0;entryDy=0;" edge="1" parent="1" source="u0cgIK4iX0vnpHJxGUB2-180" target="NRWhKprobTQQcjuas3m--4">
          <mxGeometry relative="1" as="geometry">
            <mxPoint x="203" y="171" as="sourcePoint" />
            <mxPoint x="363" y="171" as="targetPoint" />
          </mxGeometry>
        </mxCell>
        <mxCell id="Gh-pE5bJRLLb5fKhqsio-52" value="" style="endArrow=none;html=1;rounded=0;exitX=0.647;exitY=0.926;exitDx=0;exitDy=0;exitPerimeter=0;entryX=0;entryY=0;entryDx=0;entryDy=0;" edge="1" parent="1" source="u0cgIK4iX0vnpHJxGUB2-180" target="NRWhKprobTQQcjuas3m--3">
          <mxGeometry relative="1" as="geometry">
            <mxPoint x="203" y="171" as="sourcePoint" />
            <mxPoint x="363" y="171" as="targetPoint" />
          </mxGeometry>
        </mxCell>
        <mxCell id="Gh-pE5bJRLLb5fKhqsio-53" value="" style="endArrow=none;html=1;rounded=0;exitX=1;exitY=0.5;exitDx=0;exitDy=0;entryX=0;entryY=0.5;entryDx=0;entryDy=0;" edge="1" parent="1" source="Gh-pE5bJRLLb5fKhqsio-50" target="u0cgIK4iX0vnpHJxGUB2-187">
          <mxGeometry relative="1" as="geometry">
            <mxPoint x="203" y="171" as="sourcePoint" />
            <mxPoint x="363" y="171" as="targetPoint" />
          </mxGeometry>
        </mxCell>
        <mxCell id="Gh-pE5bJRLLb5fKhqsio-54" value="" style="endArrow=none;html=1;rounded=0;exitX=1;exitY=0;exitDx=0;exitDy=0;entryX=0;entryY=1;entryDx=0;entryDy=0;" edge="1" parent="1" source="Gh-pE5bJRLLb5fKhqsio-49" target="u0cgIK4iX0vnpHJxGUB2-187">
          <mxGeometry relative="1" as="geometry">
            <mxPoint x="203" y="171" as="sourcePoint" />
            <mxPoint x="363" y="171" as="targetPoint" />
          </mxGeometry>
        </mxCell>
      </root>
    </mxGraphModel>
  </diagram>
</mxfile>
